<svg width="165" height="27" viewBox="0 0 165 27" fill="none" xmlns="http://www.w3.org/2000/svg">
<g clip-path="url(#clip0)">
<rect width="164.997" height="27" fill="white"/>
<path d="M20.2102 20.9874V1.19118H29.5694C30.4959 1.19118 31.3278 1.35189 32.0652 1.67332C32.8026 1.97584 33.4266 2.40126 33.9371 2.94958C34.4665 3.4979 34.873 4.16912 35.1566 4.96324C35.4402 5.73844 35.582 6.58928 35.582 7.51576C35.582 8.46113 35.4402 9.32143 35.1566 10.0966C34.873 10.8718 34.4665 11.5336 33.9371 12.0819C33.4266 12.6303 32.8026 13.0651 32.0652 13.3866C31.3278 13.6891 30.4959 13.8403 29.5694 13.8403H24.5211V20.9874H20.2102ZM24.5211 10.0966H29.0589C29.7018 10.0966 30.2028 9.93592 30.5621 9.6145C30.9402 9.27416 31.1293 8.78256 31.1293 8.1397V6.89181C31.1293 6.24895 30.9402 5.76681 30.5621 5.44538C30.2028 5.10504 29.7018 4.93487 29.0589 4.93487H24.5211V10.0966Z" fill="#1D1D1D"/>
<path d="M42.1973 20.9874C40.7603 20.9874 39.7015 20.6376 39.0208 19.938C38.3591 19.2384 38.0282 18.2269 38.0282 16.9034V0H42.2257V17.7258H44.0975V20.9874H42.1973Z" fill="#1D1D1D"/>
<path d="M57.0511 20.9874C56.2948 20.9874 55.6614 20.7511 55.1509 20.2784C54.6593 19.8057 54.3473 19.1723 54.215 18.3781H54.0448C53.8179 19.3424 53.3169 20.0798 52.5417 20.5903C51.7665 21.0819 50.8116 21.3277 49.6772 21.3277C48.1835 21.3277 47.0396 20.9307 46.2454 20.1366C45.4513 19.3424 45.0543 18.2931 45.0543 16.9884C45.0543 15.4191 45.6215 14.2563 46.756 13.5C47.9093 12.7248 49.4692 12.3372 51.4356 12.3372H53.7896V11.4013C53.7896 10.6828 53.6005 10.1155 53.2223 9.69958C52.8442 9.2647 52.2108 9.04727 51.3221 9.04727C50.4902 9.04727 49.8284 9.22689 49.3368 9.58613C48.8452 9.94538 48.4387 10.3519 48.1173 10.8057L45.6215 8.59349C46.2265 7.70483 46.9828 7.0147 47.8904 6.52311C48.8169 6.0126 50.0648 5.75735 51.6341 5.75735C53.7517 5.75735 55.34 6.22059 56.3988 7.14706C57.4576 8.07353 57.987 9.42542 57.987 11.2027V17.7258H59.3767V20.9874H57.0511ZM51.237 18.4065C51.9366 18.4065 52.5322 18.2553 53.0238 17.9527C53.5343 17.6502 53.7896 17.1586 53.7896 16.4779V14.7195H51.7475C50.1026 14.7195 49.2801 15.2773 49.2801 16.3929V16.8183C49.2801 17.3666 49.4503 17.7731 49.7906 18.0378C50.131 18.2836 50.6131 18.4065 51.237 18.4065Z" fill="#1D1D1D"/>
<path d="M70.4815 6.09769H74.3954L68.6664 23.2847C68.2883 24.438 67.7494 25.2889 67.0498 25.8372C66.3692 26.3855 65.386 26.6597 64.1002 26.6597H61.491V23.3981H64.2988L64.8093 21.7531L59.5908 6.09769H63.7599L65.9437 13.0462L67.0215 17.3571H67.1916L68.2977 13.0462L70.4815 6.09769Z" fill="#1D1D1D"/>
<path d="M89.1347 22.0651C89.1347 22.8592 88.9929 23.5588 88.7092 24.1639C88.4445 24.7689 88.0002 25.2794 87.3763 25.6954C86.7523 26.1303 85.9204 26.4517 84.8805 26.6597C83.8595 26.8866 82.5927 27 81.08 27C79.7943 27 78.6977 26.9149 77.7901 26.7447C76.9015 26.5935 76.1735 26.3666 75.6063 26.0641C75.058 25.7805 74.6515 25.4212 74.3868 24.9863C74.141 24.5704 74.0181 24.0882 74.0181 23.5399C74.0181 22.708 74.2639 22.0557 74.7555 21.583C75.2471 21.1103 75.9277 20.8172 76.7975 20.7038V20.3918C76.079 20.2595 75.5401 19.9569 75.1809 19.4842C74.8216 18.9926 74.642 18.4254 74.642 17.7826C74.642 17.3855 74.7177 17.0452 74.8689 16.7616C75.0391 16.459 75.2471 16.2038 75.4929 15.9958C75.7576 15.7689 76.0601 15.5893 76.4004 15.4569C76.7408 15.3246 77.0811 15.2206 77.4214 15.145V15.0315C76.5139 14.6155 75.8427 14.0483 75.4078 13.3298C74.9729 12.5924 74.7555 11.7416 74.7555 10.7773C74.7555 9.2647 75.2754 8.05462 76.3153 7.14706C77.3742 6.22059 78.9813 5.75735 81.1368 5.75735C82.12 5.75735 82.9613 5.85189 83.6609 6.04097V5.47374C83.6609 4.67962 83.85 4.11239 84.2282 3.77206C84.6252 3.41281 85.183 3.23319 85.9015 3.23319H88.2555V6.35294H84.9656V6.52311C85.8353 6.93907 86.4782 7.51576 86.8941 8.25315C87.3101 8.97164 87.5181 9.81302 87.5181 10.7773C87.5181 12.271 86.9887 13.4716 85.9298 14.3792C84.8899 15.2679 83.2922 15.7122 81.1368 15.7122C80.1725 15.7122 79.2933 15.6082 78.4992 15.4002C78.0643 15.6838 77.8469 16.0809 77.8469 16.5914C77.8469 16.9506 77.9792 17.2342 78.2439 17.4422C78.5275 17.6313 78.9908 17.7258 79.6336 17.7258H83.9445C85.7597 17.7258 87.0737 18.104 87.8868 18.8603C88.7187 19.6166 89.1347 20.6849 89.1347 22.0651ZM85.1924 22.6324C85.1924 22.1975 85.0223 21.8666 84.6819 21.6397C84.3416 21.4128 83.746 21.2994 82.8952 21.2994H77.7901C77.6011 21.4884 77.4592 21.6964 77.3647 21.9233C77.2891 22.1691 77.2513 22.4055 77.2513 22.6324C77.2513 23.1807 77.4876 23.5777 77.9603 23.8235C78.433 24.0882 79.2366 24.2206 80.371 24.2206H82.0727C83.2071 24.2206 84.0107 24.0882 84.4834 23.8235C84.9561 23.5777 85.1924 23.1807 85.1924 22.6324ZM81.1368 12.9611C81.9687 12.9611 82.5832 12.791 82.9803 12.4506C83.3962 12.0914 83.6042 11.5809 83.6042 10.9191V10.5788C83.6042 9.91702 83.3962 9.41596 82.9803 9.07563C82.5832 8.71638 81.9687 8.53676 81.1368 8.53676C80.3048 8.53676 79.6809 8.71638 79.2649 9.07563C78.8679 9.41596 78.6693 9.91702 78.6693 10.5788V10.9191C78.6693 11.5809 78.8679 12.0914 79.2649 12.4506C79.6809 12.791 80.3048 12.9611 81.1368 12.9611Z" fill="#1D1D1D"/>
<path d="M90.4324 20.9874V6.09769H94.6299V9.33088H94.7717C94.8473 8.91491 94.9797 8.51786 95.1688 8.1397C95.3578 7.74265 95.6036 7.39286 95.9062 7.09034C96.2276 6.78781 96.6057 6.55147 97.0406 6.3813C97.4755 6.19223 97.986 6.09769 98.5721 6.09769H99.3095V10.0116H98.2602C97.0312 10.0116 96.1141 10.1723 95.5091 10.4937C94.923 10.8151 94.6299 11.4107 94.6299 12.2805V20.9874H90.4324Z" fill="#1D1D1D"/>
<path d="M107.234 21.3277C106.137 21.3277 105.154 21.1481 104.285 20.7889C103.434 20.4296 102.706 19.9097 102.101 19.229C101.515 18.5483 101.061 17.7258 100.739 16.7616C100.418 15.7973 100.257 14.7195 100.257 13.5284C100.257 12.3372 100.418 11.2595 100.739 10.2952C101.061 9.33088 101.515 8.51786 102.101 7.85609C102.706 7.17542 103.434 6.65546 104.285 6.29622C105.154 5.93697 106.137 5.75735 107.234 5.75735C108.331 5.75735 109.304 5.93697 110.155 6.29622C111.025 6.65546 111.753 7.17542 112.339 7.85609C112.944 8.51786 113.407 9.33088 113.729 10.2952C114.05 11.2595 114.211 12.3372 114.211 13.5284C114.211 14.7195 114.05 15.7973 113.729 16.7616C113.407 17.7258 112.944 18.5483 112.339 19.229C111.753 19.9097 111.025 20.4296 110.155 20.7889C109.304 21.1481 108.331 21.3277 107.234 21.3277ZM107.234 18.0095C108.066 18.0095 108.709 17.7542 109.163 17.2437C109.616 16.7332 109.843 16.0053 109.843 15.0599V12.0252C109.843 11.0798 109.616 10.3519 109.163 9.84139C108.709 9.33088 108.066 9.07563 107.234 9.07563C106.402 9.07563 105.759 9.33088 105.306 9.84139C104.852 10.3519 104.625 11.0798 104.625 12.0252V15.0599C104.625 16.0053 104.852 16.7332 105.306 17.2437C105.759 17.7542 106.402 18.0095 107.234 18.0095Z" fill="#1D1D1D"/>
<path d="M125.427 18.4916H125.285C125.152 18.8697 124.973 19.229 124.746 19.5693C124.538 19.9097 124.264 20.2122 123.923 20.4769C123.583 20.7416 123.177 20.9496 122.704 21.1008C122.25 21.2521 121.721 21.3277 121.116 21.3277C119.584 21.3277 118.421 20.8267 117.627 19.8246C116.852 18.8036 116.464 17.3477 116.464 15.4569V6.09769H120.662V15.0882C120.662 15.9958 120.823 16.6954 121.144 17.187C121.465 17.6786 122.014 17.9244 122.789 17.9244C123.11 17.9244 123.432 17.8771 123.753 17.7826C124.075 17.688 124.358 17.5557 124.604 17.3855C124.85 17.1964 125.048 16.9695 125.2 16.7048C125.351 16.4401 125.427 16.1281 125.427 15.7689V6.09769H129.624V20.9874H125.427V18.4916Z" fill="#1D1D1D"/>
<path d="M132.962 20.9874V6.09769H137.16V8.62185H137.33C137.595 7.84664 138.058 7.17542 138.72 6.60819C139.381 6.04097 140.298 5.75735 141.471 5.75735C143.002 5.75735 144.156 6.26786 144.931 7.28886C145.725 8.30987 146.122 9.76575 146.122 11.6565V20.9874H141.924V11.9968C141.924 11.0326 141.773 10.3235 141.471 9.86975C141.168 9.39706 140.629 9.16071 139.854 9.16071C139.514 9.16071 139.183 9.20798 138.861 9.30252C138.54 9.37815 138.247 9.5105 137.982 9.69958C137.736 9.88865 137.538 10.125 137.387 10.4086C137.235 10.6733 137.16 10.9853 137.16 11.3445V20.9874H132.962Z" fill="#1D1D1D"/>
<path d="M158.422 18.4916H158.281C158.167 18.8887 157.987 19.2668 157.742 19.626C157.496 19.9664 157.193 20.2689 156.834 20.5336C156.494 20.7794 156.097 20.9685 155.643 21.1008C155.208 21.2521 154.754 21.3277 154.282 21.3277C152.391 21.3277 150.963 20.666 149.999 19.3424C149.035 18 148.553 16.062 148.553 13.5284C148.553 10.9947 149.035 9.06618 149.999 7.74265C150.963 6.41912 152.391 5.75735 154.282 5.75735C155.246 5.75735 156.097 6.02206 156.834 6.55147C157.59 7.08088 158.073 7.76155 158.281 8.59349H158.422V0H162.62V20.9874H158.422V18.4916ZM155.671 17.9244C156.465 17.9244 157.118 17.7353 157.628 17.3571C158.158 16.9601 158.422 16.4212 158.422 15.7405V11.3445C158.422 10.6639 158.158 10.1345 157.628 9.7563C157.118 9.35924 156.465 9.16071 155.671 9.16071C154.877 9.16071 154.215 9.44433 153.686 10.0116C153.175 10.5599 152.92 11.3067 152.92 12.2521V14.833C152.92 15.7784 153.175 16.5347 153.686 17.1019C154.215 17.6502 154.877 17.9244 155.671 17.9244Z" fill="#1D1D1D"/>
<path d="M15.3197 11.5728C15.3168 10.6399 14.9082 10.2188 14.4646 9.9L14.4471 9.88537L-2.54615 -0.55221L-2.58409 -0.572682C-3.00433 -0.794944 -3.46834 -0.794944 -3.83313 -0.575606C-4.1804 -0.365041 -4.3876 0.023919 -4.3876 0.462596L-4.38469 1.12354C-4.38177 2.11495 -4.00822 2.42787 -3.59091 2.68523L11.2954 11.9325L-3.53254 21.2588L-3.5413 21.2647C-3.95569 21.522 -4.32924 21.8379 -4.32632 22.8293L-4.3234 23.4902C-4.3234 23.9289 -4.11328 24.3149 -3.766 24.5255C-3.58507 24.6337 -3.38079 24.6893 -3.16483 24.6893C-2.94888 24.6893 -2.72709 24.6337 -2.51697 24.5226L-2.49654 24.5109L14.4384 13.9709L14.4792 13.9446C14.9199 13.6229 15.3255 13.1988 15.3226 12.2689L15.3197 11.5728Z" fill="#CB1E40"/>
<path fill-rule="evenodd" clip-rule="evenodd" d="M14.4464 9.88467L14.4639 9.89929C14.9075 10.2181 15.3161 10.6392 15.319 11.5721L15.3219 12.2681C15.3248 13.1981 14.9192 13.6222 14.4785 13.9439L14.4376 13.9702L-2.49728 24.5102L-2.51771 24.5219C-2.72783 24.633 -2.94962 24.6886 -3.16557 24.6886C-3.38153 24.6886 -3.58581 24.633 -3.76674 24.5248C-4.11402 24.3142 -4.32414 23.9282 -4.32414 23.4895L-4.32706 22.8286C-4.32998 21.8372 -3.95643 21.5213 -3.54203 21.2639L-3.53328 21.2581L11.2946 11.9318L-3.59165 2.68452C-4.00896 2.42716 -4.38251 2.11424 -4.38542 1.12283L-4.38834 0.461888C-4.38834 0.0232109 -4.18114 -0.365749 -3.83386 -0.576314C-3.46908 -0.795653 -3.00507 -0.795653 -2.58483 -0.57339L-2.54689 -0.552918L14.4464 9.88467ZM-5.06354 1.12534C-5.06354 1.12517 -5.06354 1.125 -5.06354 1.12482L-5.06647 0.461888C-5.06647 -0.189919 -4.75512 -0.810762 -4.18545 -1.15617L-4.1833 -1.15747C-3.58964 -1.51442 -2.87062 -1.49167 -2.26779 -1.17283L-2.26529 -1.17151L-2.20816 -1.14068L14.8433 9.33262L14.8804 9.36358C15.1305 9.54533 15.4173 9.79052 15.6373 10.155C15.8674 10.5364 15.9952 10.9988 15.9971 11.5695C15.9971 11.5697 15.9971 11.5698 15.9971 11.57L16 12.2653L16 12.266C16.0018 12.8359 15.8768 13.2984 15.6493 13.6808C15.426 14.0562 15.1316 14.3067 14.8783 14.4916L14.8624 14.5033L14.8004 14.5431L-2.14953 25.0925L-2.19062 25.116L-2.20067 25.1213C-2.50265 25.281 -2.8327 25.3667 -3.16557 25.3667C-3.50068 25.3667 -3.82577 25.2796 -4.11479 25.1068L-4.11833 25.1046C-4.68335 24.7621 -5.00172 24.1476 -5.00226 23.4912C-5.00226 23.4906 -5.00226 23.4901 -5.00226 23.4895L-5.00517 22.8306C-5.00688 22.2504 -4.89842 21.7887 -4.66838 21.4153C-4.44256 21.0488 -4.14128 20.8385 -3.90963 20.694L-3.90223 20.6891L10.0153 11.9354L-3.94759 3.26171C-3.94791 3.26151 -3.94822 3.26132 -3.94853 3.26113C-4.18211 3.11703 -4.4892 2.90735 -4.71957 2.53739C-4.95125 2.16533 -5.06177 1.70472 -5.06354 1.12534Z" fill="#CB1E40"/>
</g>
<defs>
<clipPath id="clip0">
<rect width="164.997" height="27" fill="white"/>
</clipPath>
</defs>
</svg>
