<?xml version="1.0" encoding="utf-8"?>
<!-- Generator: Adobe Illustrator 16.0.0, SVG Export Plug-In . SVG Version: 6.00 Build 0)  -->
<!DOCTYPE svg PUBLIC "-//W3C//DTD SVG 1.1//EN" "http://www.w3.org/Graphics/SVG/1.1/DTD/svg11.dtd">
<svg version="1.1" id="Layer_1" xmlns="http://www.w3.org/2000/svg" xmlns:xlink="http://www.w3.org/1999/xlink" x="0px" y="0px"
	 width="180px" height="180px" viewBox="0 0 180 180" enable-background="new 0 0 180 180" xml:space="preserve">
<path fill="#DF98AA" d="M127.97,89.009c0,5.044-4.089,9.131-9.133,9.131H60.276c-5.044,0-9.132-4.087-9.132-9.131V30.449
	c0-5.044,4.088-9.133,9.132-9.133h58.561c5.044,0,9.133,4.089,9.133,9.133V89.009z"/>
<g>
	<path fill="#93629E" d="M42.151,144.093c2.207,0,3.982,1.776,3.982,3.981c0,2.206-1.775,3.981-3.982,3.981
		c-7.532,0-13.666-6.133-13.666-13.665v-5.65h-4.035c-2.206,0-3.981-1.775-3.981-3.98c0-2.206,1.775-3.982,3.981-3.982h4.035v-7.694
		c0-2.205,1.776-3.98,3.982-3.98c2.206,0,3.98,1.775,3.98,3.98v7.694h4.52c2.206,0,3.981,1.776,3.981,3.982
		c0,2.205-1.775,3.98-3.981,3.98h-4.52v5.65c0,3.121,2.529,5.648,5.65,5.648L42.151,144.093z"/>
	<path fill="#93629E" d="M46.133,138.336c0-7.531,6.133-13.666,13.666-13.666c7.532,0,13.667,6.135,13.667,13.666
		c0,7.533-6.134,13.666-13.667,13.666C52.266,152.002,46.133,145.869,46.133,138.336z M54.149,138.336
		c0,3.121,2.53,5.649,5.65,5.649c3.121,0,5.649-2.528,5.649-5.649c0-3.12-2.528-5.649-5.649-5.649
		C56.679,132.687,54.149,135.216,54.149,138.336z"/>
	<path fill="#93629E" d="M80.749,142.317c-2.207,0-3.982-1.775-3.982-3.981s1.775-3.981,3.982-3.981h13.138
		c2.206,0,3.982,1.775,3.982,3.981s-1.776,3.981-3.982,3.981H80.749z"/>
	<path fill="#93629E" d="M101.339,138.391c0-7.533,6.133-13.667,13.666-13.667c1.99,0,3.874,0.431,5.595,1.238v-8.932
		c0-2.205,1.775-3.982,3.981-3.982c2.207,0,3.981,1.777,3.981,3.982v30.99c0,2.207-1.774,3.981-3.981,3.981
		c-1.292,0-2.42-0.645-3.174-1.614c-1.937,1.022-4.143,1.614-6.455,1.614c-7.534,0-13.667-6.133-13.667-13.666L101.339,138.391z
		 M115.005,144.039c3.12,0,5.647-2.527,5.647-5.648s-2.527-5.65-5.647-5.65c-3.121,0-5.649,2.529-5.649,5.65
		S111.884,144.039,115.005,144.039z"/>
	<path fill="#93629E" d="M131.313,138.336c0-7.531,6.133-13.666,13.666-13.666c7.531,0,13.666,6.135,13.666,13.666
		c0,7.533-6.135,13.666-13.666,13.666C137.445,152.002,131.313,145.869,131.313,138.336z M139.33,138.336
		c0,3.121,2.527,5.649,5.648,5.649c3.12,0,5.648-2.528,5.648-5.649c0-3.12-2.528-5.649-5.648-5.649
		C141.857,132.687,139.33,135.216,139.33,138.336z"/>
</g>
<g>
	<path fill="#DF98AA" d="M32.206,159.143c0.857,0,1.567,0.711,1.567,1.567c0,0.858-0.71,1.569-1.567,1.569h-2.844v10.534
		c0,0.855-0.71,1.567-1.567,1.567s-1.567-0.712-1.567-1.567v-10.534h-2.843c-0.857,0-1.568-0.711-1.568-1.569
		c0-0.856,0.71-1.567,1.568-1.567h8.8H32.206z"/>
	<path fill="#DF98AA" d="M44.079,163.741c0.856,0,1.546,0.689,1.546,1.547v7.482c0,0.858-0.69,1.548-1.546,1.548
		c-0.502,0-0.962-0.252-1.254-0.628c-0.753,0.397-1.61,0.628-2.509,0.628c-2.926,0-5.309-2.384-5.309-5.309
		c0-2.927,2.383-5.312,5.309-5.312c0.899,0,1.756,0.23,2.509,0.628c0.292-0.376,0.752-0.628,1.254-0.628V163.741z M42.531,169.028
		c0-1.212-0.982-2.193-2.194-2.193c-1.213,0-2.195,0.981-2.195,2.193c0,1.213,0.982,2.195,2.195,2.195
		C41.549,171.224,42.531,170.241,42.531,169.028z"/>
	<path fill="#DF98AA" d="M51.604,174.233c-2.049,0-3.554-0.752-3.721-0.835c-0.773-0.397-1.065-1.338-0.668-2.112
		c0.397-0.752,1.338-1.045,2.09-0.647c0.042,0.021,1.024,0.501,2.299,0.501c0.669,0,0.94-0.104,1.024-0.145
		c0-0.043,0.021-0.105,0.021-0.23c-0.209-0.126-0.752-0.252-1.17-0.252c-2.153,0-4.473-1.022-4.473-3.281
		c0-0.837,0.313-3.573,4.369-3.573c2.069,0,3.449,0.794,3.595,0.878c0.731,0.438,0.961,1.399,0.522,2.131s-1.401,0.962-2.132,0.523
		c0,0-0.794-0.439-1.986-0.439c-0.856,0-1.17,0.188-1.212,0.23c0,0-0.022,0.041-0.022,0.125c0.272,0.146,0.92,0.271,1.338,0.271
		c2.049,0,4.263,1.024,4.263,3.282c0,1.337-0.543,3.573-4.18,3.573H51.604z"/>
	<path fill="#DF98AA" d="M66.528,173.545c-0.292,0.48-0.815,0.752-1.338,0.752c-0.271,0-0.544-0.063-0.794-0.209l-3.93-2.382v1.043
		c0,0.858-0.69,1.548-1.546,1.548c-0.857,0-1.546-0.689-1.546-1.548V160.71c0-0.856,0.689-1.547,1.546-1.547
		c0.856,0,1.546,0.69,1.546,1.547v5.456l3.93-2.382c0.731-0.44,1.692-0.21,2.132,0.521c0.439,0.731,0.208,1.691-0.522,2.132
		l-4.097,2.487l4.097,2.488C66.736,171.851,66.967,172.813,66.528,173.545z"/>
	<path fill="#DF98AA" d="M89.354,174.401c-0.857,0-1.568-0.711-1.568-1.567v-7.881l-3.448,4.057
		c-0.292,0.354-0.731,0.563-1.191,0.563c-0.46,0-0.899-0.21-1.192-0.563l-3.449-4.057v7.881c0,0.856-0.711,1.567-1.567,1.567
		c-0.857,0-1.568-0.711-1.568-1.567V160.71c0-0.646,0.418-1.233,1.024-1.463s1.296-0.043,1.714,0.46l5.016,5.894l5.016-5.894
		c0.419-0.503,1.108-0.689,1.715-0.46c0.605,0.229,1.023,0.816,1.023,1.463v12.124c0,0.856-0.71,1.567-1.567,1.567H89.354z"/>
	<path fill="#DF98AA" d="M101.206,163.741c0.856,0,1.546,0.689,1.546,1.547v7.482c0,0.858-0.689,1.548-1.546,1.548
		c-0.502,0-0.962-0.252-1.255-0.628c-0.752,0.397-1.608,0.628-2.508,0.628c-2.927,0-5.309-2.384-5.309-5.309
		c0-2.927,2.382-5.312,5.309-5.312c0.899,0,1.756,0.23,2.508,0.628c0.293-0.376,0.753-0.628,1.255-0.628V163.741z M99.658,169.028
		c0-1.212-0.981-2.193-2.194-2.193c-1.212,0-2.194,0.981-2.194,2.193c0,1.213,0.982,2.195,2.194,2.195
		C98.677,171.224,99.658,170.241,99.658,169.028z"/>
	<path fill="#DF98AA" d="M112.933,174.297c-0.836,0-1.505-0.668-1.505-1.506v-4.012c0-1.15-0.941-2.091-2.091-2.091
		c-1.15,0-2.09,0.94-2.09,2.091v4.012c0,0.838-0.669,1.506-1.505,1.506c-0.837,0-1.505-0.668-1.505-1.506v-4.012
		c0-2.802,2.277-5.081,5.078-5.081c2.802,0,5.08,2.279,5.08,5.081v4.012c0,0.838-0.669,1.506-1.505,1.506H112.933z"/>
	<path fill="#DF98AA" d="M124.657,163.741c0.859,0,1.549,0.689,1.549,1.547v7.482c0,0.858-0.689,1.548-1.549,1.548
		c-0.5,0-0.96-0.252-1.253-0.628c-0.753,0.397-1.609,0.628-2.508,0.628c-2.926,0-5.31-2.384-5.31-5.309
		c0-2.927,2.384-5.312,5.31-5.312c0.898,0,1.755,0.23,2.508,0.628c0.293-0.376,0.753-0.628,1.253-0.628V163.741z M123.112,169.028
		c0-1.212-0.983-2.193-2.196-2.193c-1.211,0-2.193,0.981-2.193,2.193c0,1.213,0.982,2.195,2.193,2.195
		C122.129,171.224,123.112,170.241,123.112,169.028z"/>
	<path fill="#DF98AA" d="M136.719,163.637c0.878,0,1.59,0.711,1.59,1.588v8.404c0,2.968-2.404,5.371-5.372,5.371
		c-0.878,0-1.589-0.711-1.589-1.588c0-0.879,0.711-1.589,1.589-1.589c1.129,0,2.068-0.837,2.216-1.924
		c-0.67,0.293-1.422,0.46-2.195,0.46c-2.968,0-5.372-2.404-5.372-5.372c0-2.969,2.404-5.372,5.372-5.372
		c0.919,0,1.777,0.23,2.528,0.628c0.293-0.376,0.753-0.628,1.276-0.628L136.719,163.637z M135.131,169.01
		c0-1.213-0.981-2.196-2.194-2.196s-2.195,0.983-2.195,2.196c0,1.211,0.982,2.214,2.195,2.214S135.131,170.221,135.131,169.01z"/>
	<path fill="#DF98AA" d="M144.705,174.297c-2.927,0-5.31-2.383-5.31-5.31c0-2.925,2.383-5.31,5.31-5.31
		c2.926,0,5.309,2.385,5.309,5.31c0,0.42-0.168,0.816-0.46,1.108c-0.293,0.292-0.69,0.46-1.108,0.46h-5.267
		c0.397,0.396,0.941,0.647,1.546,0.647c0.858,0,1.547,0.69,1.547,1.546c0,0.858-0.688,1.548-1.547,1.548H144.705z M146.271,167.44
		c-0.396-0.397-0.94-0.647-1.547-0.647c-0.604,0-1.148,0.25-1.546,0.647H146.271z"/>
	<path fill="#DF98AA" d="M156.515,163.615c0.857,0,1.546,0.69,1.546,1.548c0,0.855-0.688,1.545-1.546,1.545
		c-1.213,0-2.195,0.984-2.195,2.196v3.762c0,0.856-0.689,1.548-1.546,1.548c-0.857,0-1.547-0.691-1.547-1.548v-7.503
		c0-0.857,0.689-1.548,1.547-1.548c0.501,0,0.962,0.252,1.255,0.628c0.752-0.397,1.609-0.628,2.507-0.628H156.515z"/>
</g>
<path fill="#93629E" d="M135.697,12.609c3.567,3.567,3.567,9.349,0,12.917L88.072,73.151c-3.567,3.566-9.35,3.566-12.917,0
	l-7.265-7.264c-3.566-3.567-3.566-9.35,0-12.917l47.626-47.626c3.567-3.567,9.351-3.566,12.916,0L135.697,12.609z"/>
<path fill="#4E3248" d="M146.277,12.609c3.566,3.567,3.566,9.349,0,12.917L98.652,73.151c-3.568,3.566-9.352,3.566-12.917,0
	l-7.265-7.264c-3.566-3.567-3.566-9.35,0-12.917l47.625-47.626c3.568-3.567,9.349-3.566,12.916,0L146.277,12.609z"/>
<path fill="#93629E" d="M81.326,85.434c-3.567,3.567-2.812,10.279-6.378,6.713L40.964,57.989c-3.567-3.567-3.567-9.349,0-12.916
	l7.265-7.264c3.566-3.567,9.349-3.567,12.916,0L88.59,65.253c3.567,3.567,3.567,9.349,0,12.916L81.326,85.434z"/>
<path fill="#623A78" d="M156.856,12.609c3.566,3.567,3.566,9.35,0,12.917L89.05,93.331c-3.567,3.567-9.349,3.567-12.916,0
	l-7.265-7.264c-3.567-3.566-3.567-9.349,0-12.916l67.807-67.807c3.566-3.567,9.349-3.566,12.915,0L156.856,12.609z"/>
</svg>
