<?xml version="1.0" encoding="utf-8"?>
<!-- Generator: Adobe Illustrator 16.0.0, SVG Export Plug-In . SVG Version: 6.00 Build 0)  -->
<!DOCTYPE svg PUBLIC "-//W3C//DTD SVG 1.1//EN" "http://www.w3.org/Graphics/SVG/1.1/DTD/svg11.dtd">
<svg version="1.1" id="Layer_1" xmlns="http://www.w3.org/2000/svg" xmlns:xlink="http://www.w3.org/1999/xlink" x="0px" y="0px"
	 width="180px" height="66.715px" viewBox="0 0 180 66.715" enable-background="new 0 0 180 66.715" xml:space="preserve">
<path fill="#DF98AA" d="M51.083,57.618c0,3.162-2.563,5.728-5.727,5.728H8.635c-3.163,0-5.727-2.565-5.727-5.728V20.897
	c0-3.164,2.564-5.727,5.727-5.727h36.722c3.163,0,5.727,2.563,5.727,5.727V57.618z"/>
<g>
	<path fill="#93629E" d="M92.329,40.196c1.639,0,2.957,1.319,2.957,2.958c0,1.639-1.318,2.958-2.957,2.958
		c-5.597,0-10.152-4.558-10.152-10.153v-4.197h-2.998c-1.639,0-2.958-1.319-2.958-2.958c0-1.638,1.319-2.957,2.958-2.957h2.998
		v-5.716c0-1.639,1.318-2.958,2.958-2.958c1.638,0,2.957,1.319,2.957,2.958v5.716h3.357c1.639,0,2.958,1.319,2.958,2.957
		c0,1.639-1.319,2.958-2.958,2.958h-3.357v4.197c0,2.318,1.879,4.197,4.197,4.197L92.329,40.196z"/>
	<path fill="#93629E" d="M95.286,35.919c0-5.596,4.557-10.152,10.152-10.152c5.597,0,10.153,4.556,10.153,10.152
		c0,5.596-4.557,10.153-10.153,10.153C99.843,46.072,95.286,41.515,95.286,35.919z M101.242,35.919c0,2.319,1.879,4.197,4.196,4.197
		c2.319,0,4.197-1.877,4.197-4.197c0-2.318-1.878-4.196-4.197-4.196C103.121,31.723,101.242,33.601,101.242,35.919z"/>
	<path fill="#93629E" d="M121.001,38.877c-1.639,0-2.956-1.319-2.956-2.958c0-1.639,1.317-2.958,2.956-2.958h9.762
		c1.639,0,2.958,1.319,2.958,2.958c0,1.639-1.319,2.958-2.958,2.958H121.001z"/>
	<path fill="#93629E" d="M136.299,35.959c0-5.596,4.556-10.152,10.152-10.152c1.479,0,2.878,0.32,4.155,0.92v-6.636
		c0-1.638,1.32-2.958,2.959-2.958s2.957,1.32,2.957,2.958v23.022c0,1.639-1.318,2.959-2.957,2.959c-0.961,0-1.8-0.48-2.357-1.2
		c-1.438,0.76-3.079,1.2-4.797,1.2c-5.597,0-10.152-4.557-10.152-10.153L136.299,35.959z M146.451,40.156
		c2.317,0,4.196-1.879,4.196-4.197c0-2.317-1.879-4.197-4.196-4.197c-2.319,0-4.197,1.879-4.197,4.197
		C142.254,38.277,144.132,40.156,146.451,40.156z"/>
	<path fill="#93629E" d="M158.565,35.919c0-5.596,4.558-10.152,10.154-10.152c5.593,0,10.15,4.556,10.15,10.152
		c0,5.596-4.558,10.153-10.15,10.153C163.123,46.072,158.565,41.515,158.565,35.919z M164.522,35.919
		c0,2.319,1.878,4.197,4.197,4.197c2.317,0,4.196-1.877,4.196-4.197c0-2.318-1.879-4.196-4.196-4.196
		C166.4,31.723,164.522,33.601,164.522,35.919z"/>
</g>
<g>
	<path fill="#DF98AA" d="M86.471,52.494c0.614,0,1.123,0.509,1.123,1.123c0,0.613-0.509,1.122-1.123,1.122h-2.036v7.545
		c0,0.613-0.509,1.122-1.123,1.122s-1.123-0.509-1.123-1.122v-7.545h-2.036c-0.614,0-1.123-0.509-1.123-1.122
		c0-0.614,0.509-1.123,1.123-1.123h6.302H86.471z"/>
	<path fill="#DF98AA" d="M94.973,55.787c0.613,0,1.107,0.494,1.107,1.108v5.358c0,0.613-0.494,1.107-1.107,1.107
		c-0.359,0-0.688-0.18-0.898-0.449c-0.539,0.285-1.152,0.449-1.796,0.449c-2.096,0-3.802-1.706-3.802-3.802s1.707-3.802,3.802-3.802
		c0.644,0,1.257,0.164,1.796,0.448c0.21-0.269,0.539-0.448,0.898-0.448V55.787z M93.865,59.574c0-0.868-0.704-1.571-1.572-1.571
		s-1.572,0.703-1.572,1.571s0.704,1.572,1.572,1.572S93.865,60.442,93.865,59.574z"/>
	<path fill="#DF98AA" d="M100.36,63.302c-1.467,0-2.544-0.539-2.664-0.599c-0.554-0.284-0.764-0.958-0.479-1.512
		c0.285-0.539,0.958-0.749,1.497-0.464c0.03,0.015,0.733,0.358,1.646,0.358c0.479,0,0.674-0.074,0.733-0.104
		c0-0.03,0.016-0.074,0.016-0.164c-0.15-0.09-0.539-0.18-0.839-0.18c-1.541,0-3.203-0.733-3.203-2.351
		c0-0.599,0.225-2.56,3.129-2.56c1.481,0,2.47,0.568,2.574,0.629c0.524,0.314,0.688,1.003,0.374,1.526
		c-0.314,0.524-1.003,0.688-1.526,0.374c0,0-0.569-0.313-1.422-0.313c-0.614,0-0.839,0.135-0.868,0.164c0,0-0.016,0.03-0.016,0.09
		c0.195,0.104,0.659,0.194,0.958,0.194c1.468,0,3.054,0.733,3.054,2.351c0,0.958-0.389,2.56-2.993,2.56H100.36z"/>
	<path fill="#DF98AA" d="M111.049,62.808c-0.209,0.345-0.584,0.539-0.958,0.539c-0.194,0-0.389-0.045-0.568-0.149l-2.814-1.707
		v0.749c0,0.613-0.494,1.107-1.107,1.107c-0.614,0-1.108-0.494-1.108-1.107v-8.622c0-0.614,0.494-1.108,1.108-1.108
		c0.613,0,1.107,0.494,1.107,1.108v3.906l2.814-1.706c0.523-0.314,1.212-0.149,1.526,0.374c0.314,0.524,0.149,1.213-0.374,1.527
		l-2.934,1.781l2.934,1.781C111.198,61.596,111.363,62.284,111.049,62.808z"/>
	<path fill="#DF98AA" d="M127.394,63.422c-0.613,0-1.122-0.51-1.122-1.123v-5.644l-2.47,2.904c-0.21,0.255-0.524,0.404-0.854,0.404
		s-0.644-0.149-0.854-0.404l-2.47-2.904v5.644c0,0.613-0.509,1.123-1.123,1.123c-0.613,0-1.122-0.51-1.122-1.123v-8.682
		c0-0.464,0.299-0.884,0.733-1.048c0.434-0.165,0.928-0.03,1.228,0.329l3.593,4.221l3.592-4.221c0.3-0.359,0.794-0.494,1.228-0.329
		c0.435,0.164,0.733,0.584,0.733,1.048v8.682c0,0.613-0.509,1.123-1.122,1.123H127.394z"/>
	<path fill="#DF98AA" d="M135.881,55.787c0.614,0,1.108,0.494,1.108,1.108v5.358c0,0.613-0.494,1.107-1.108,1.107
		c-0.359,0-0.688-0.18-0.897-0.449c-0.539,0.285-1.153,0.449-1.797,0.449c-2.096,0-3.802-1.706-3.802-3.802s1.706-3.802,3.802-3.802
		c0.644,0,1.258,0.164,1.797,0.448c0.209-0.269,0.538-0.448,0.897-0.448V55.787z M134.773,59.574c0-0.868-0.703-1.571-1.571-1.571
		s-1.572,0.703-1.572,1.571s0.704,1.572,1.572,1.572S134.773,60.442,134.773,59.574z"/>
	<path fill="#DF98AA" d="M144.277,63.347c-0.599,0-1.077-0.479-1.077-1.078v-2.874c0-0.823-0.674-1.496-1.497-1.496
		s-1.497,0.673-1.497,1.496v2.874c0,0.599-0.479,1.078-1.078,1.078c-0.599,0-1.077-0.479-1.077-1.078v-2.874
		c0-2.006,1.632-3.637,3.638-3.637s3.637,1.631,3.637,3.637v2.874c0,0.599-0.479,1.078-1.077,1.078H144.277z"/>
	<path fill="#DF98AA" d="M152.675,55.787c0.614,0,1.108,0.494,1.108,1.108v5.358c0,0.613-0.494,1.107-1.108,1.107
		c-0.359,0-0.688-0.18-0.897-0.449c-0.539,0.285-1.153,0.449-1.797,0.449c-2.096,0-3.802-1.706-3.802-3.802s1.706-3.802,3.802-3.802
		c0.644,0,1.258,0.164,1.797,0.448c0.209-0.269,0.538-0.448,0.897-0.448V55.787z M151.567,59.574c0-0.868-0.703-1.571-1.571-1.571
		s-1.572,0.703-1.572,1.571s0.704,1.572,1.572,1.572S151.567,60.442,151.567,59.574z"/>
	<path fill="#DF98AA" d="M161.313,55.713c0.628,0,1.137,0.509,1.137,1.138v6.017c0,2.126-1.721,3.848-3.847,3.848
		c-0.629,0-1.138-0.509-1.138-1.138s0.509-1.138,1.138-1.138c0.809,0,1.482-0.599,1.587-1.377c-0.479,0.209-1.018,0.329-1.572,0.329
		c-2.125,0-3.847-1.722-3.847-3.847c0-2.126,1.722-3.848,3.847-3.848c0.659,0,1.272,0.165,1.812,0.449
		c0.21-0.27,0.539-0.449,0.913-0.449L161.313,55.713z M160.175,59.56c0-0.868-0.704-1.571-1.572-1.571s-1.571,0.703-1.571,1.571
		s0.703,1.587,1.571,1.587S160.175,60.428,160.175,59.56z"/>
	<path fill="#DF98AA" d="M167.03,63.347c-2.096,0-3.802-1.706-3.802-3.802s1.706-3.803,3.802-3.803s3.802,1.707,3.802,3.803
		c0,0.299-0.119,0.583-0.329,0.793s-0.494,0.329-0.793,0.329h-3.772c0.284,0.284,0.674,0.464,1.107,0.464
		c0.614,0,1.108,0.494,1.108,1.108c0,0.613-0.494,1.107-1.108,1.107H167.03z M168.153,58.437c-0.285-0.284-0.674-0.464-1.108-0.464
		c-0.434,0-0.823,0.18-1.107,0.464H168.153z"/>
	<path fill="#DF98AA" d="M175.487,55.697c0.613,0,1.107,0.494,1.107,1.108c0,0.613-0.494,1.107-1.107,1.107
		c-0.868,0-1.572,0.703-1.572,1.571v2.694c0,0.614-0.494,1.108-1.107,1.108c-0.614,0-1.107-0.494-1.107-1.108v-5.373
		c0-0.614,0.493-1.108,1.107-1.108c0.359,0,0.688,0.18,0.897,0.449c0.539-0.284,1.153-0.449,1.797-0.449H175.487z"/>
</g>
<path fill="#93629E" d="M55.929,9.71c2.237,2.237,2.237,5.863,0,8.1L26.065,47.675c-2.237,2.236-5.863,2.236-8.099,0l-4.556-4.556
	c-2.236-2.236-2.236-5.862,0-8.098L43.275,5.155c2.237-2.237,5.862-2.237,8.099,0L55.929,9.71z"/>
<path fill="#4E3248" d="M62.564,9.71c2.236,2.237,2.236,5.863,0,8.1L32.699,47.675c-2.237,2.236-5.862,2.236-8.099,0l-4.556-4.556
	c-2.236-2.236-2.236-5.862,0-8.098L49.909,5.155c2.237-2.237,5.863-2.237,8.099,0L62.564,9.71z"/>
<path fill="#623A78" d="M69.198,9.71c2.236,2.237,2.236,5.863,0,8.1l-42.52,42.519c-2.237,2.238-5.863,2.238-8.099,0l-4.556-4.556
	c-2.237-2.235-2.237-5.862,0-8.099l42.52-42.52c2.236-2.237,5.862-2.237,8.099,0L69.198,9.71z"/>
</svg>
