<?xml version="1.0" encoding="utf-8"?>
<!-- Generator: Adobe Illustrator 16.0.0, SVG Export Plug-In . SVG Version: 6.00 Build 0)  -->
<!DOCTYPE svg PUBLIC "-//W3C//DTD SVG 1.1//EN" "http://www.w3.org/Graphics/SVG/1.1/DTD/svg11.dtd">
<svg version="1.1" id="Layer_1" xmlns="http://www.w3.org/2000/svg" xmlns:xlink="http://www.w3.org/1999/xlink" x="0px" y="0px"
	 width="180px" height="180px" viewBox="0 0 180 180" enable-background="new 0 0 180 180" xml:space="preserve">
<path fill="#DF98AA" d="M131.565,144.756c0,7.153-5.8,12.954-12.953,12.954H35.548c-7.153,0-12.953-5.801-12.953-12.954V61.693
	c0-7.154,5.8-12.955,12.953-12.955h83.064c7.153,0,12.953,5.8,12.953,12.955V144.756z"/>
<path fill="#93629E" d="M142.527,36.389c5.059,5.059,5.059,13.26,0,18.32l-67.553,67.554c-5.06,5.059-13.262,5.059-18.321,0
	l-10.305-10.304c-5.059-5.059-5.059-13.261,0-18.321l67.556-67.554c5.058-5.058,13.259-5.058,18.318,0L142.527,36.389z"/>
<path fill="#4E3248" d="M157.536,36.389c5.056,5.059,5.056,13.26,0,18.32l-67.555,67.554c-5.061,5.059-13.262,5.059-18.322,0
	l-10.305-10.304c-5.059-5.059-5.059-13.261,0-18.321l67.553-67.554c5.061-5.058,13.263-5.058,18.321,0L157.536,36.389z"/>
<path fill="#93629E" d="M65.404,139.685c-5.059,5.059-3.988,14.579-9.046,9.52L8.155,100.756c-5.059-5.06-5.059-13.262,0-18.32
	L18.461,72.13c5.058-5.059,13.261-5.059,18.319,0l38.929,38.93c5.059,5.061,5.059,13.262,0,18.32L65.404,139.685z"/>
<path fill="#623A78" d="M172.539,36.389c5.059,5.059,5.059,13.261,0,18.32l-96.178,96.178c-5.06,5.06-13.261,5.06-18.319,0
	l-10.306-10.304c-5.059-5.06-5.059-13.262,0-18.32l96.179-96.179c5.059-5.058,13.261-5.058,18.319,0L172.539,36.389z"/>
</svg>
