<?xml version="1.0" encoding="utf-8"?>
<!-- Generator: Adobe Illustrator 16.0.0, SVG Export Plug-In . SVG Version: 6.00 Build 0)  -->
<!DOCTYPE svg PUBLIC "-//W3C//DTD SVG 1.1//EN" "http://www.w3.org/Graphics/SVG/1.1/DTD/svg11.dtd">
<svg version="1.1" id="Layer_1" xmlns="http://www.w3.org/2000/svg" xmlns:xlink="http://www.w3.org/1999/xlink" x="0px" y="0px"
	 width="1000px" height="1000px" viewBox="0 0 1000 1000" enable-background="new 0 0 1000 1000" xml:space="preserve">
<path fill="#DF98AA" d="M648.814,499.267c0,19.768-16.023,35.793-35.793,35.793H383.503c-19.768,0-35.794-16.025-35.794-35.793
	V269.749c0-19.768,16.026-35.793,35.794-35.793h229.518c19.77,0,35.793,16.026,35.793,35.793V499.267z"/>
<g>
	<path fill="#93629E" d="M312.465,717.277c8.646,0,15.605,6.959,15.605,15.604c0,8.646-6.958,15.604-15.605,15.604
		c-29.522,0-53.56-24.039-53.56-53.561v-22.143H243.09c-8.646,0-15.605-6.959-15.605-15.604c0-8.646,6.958-15.605,15.605-15.605
		h15.815V611.42c0-8.646,6.958-15.604,15.605-15.604c8.645,0,15.603,6.957,15.603,15.604v30.152h17.713
		c8.646,0,15.605,6.959,15.605,15.605c0,8.645-6.958,15.604-15.605,15.604h-17.713v22.143c0,12.23,9.911,22.141,22.143,22.141
		L312.465,717.277z"/>
	<path fill="#93629E" d="M328.07,694.713c0-29.521,24.039-53.561,53.56-53.561c29.523,0,53.563,24.039,53.563,53.561
		c0,29.523-24.04,53.563-53.563,53.563C352.109,748.275,328.07,724.236,328.07,694.713z M359.489,694.713
		c0,12.232,9.913,22.143,22.141,22.143c12.232,0,22.143-9.91,22.143-22.143c0-12.23-9.911-22.141-22.143-22.141
		C369.401,672.572,359.489,682.482,359.489,694.713z"/>
	<path fill="#93629E" d="M463.739,710.316c-8.648,0-15.605-6.959-15.605-15.604c0-8.646,6.957-15.605,15.605-15.605h51.494
		c8.644,0,15.604,6.959,15.604,15.605c0,8.645-6.96,15.604-15.604,15.604H463.739z"/>
	<path fill="#93629E" d="M544.438,694.924c0-29.523,24.039-53.563,53.561-53.563c7.802,0,15.184,1.689,21.93,4.852v-35.004
		c0-8.645,6.962-15.605,15.605-15.605c8.646,0,15.608,6.961,15.608,15.605v121.463c0,8.645-6.962,15.604-15.608,15.604
		c-5.062,0-9.487-2.533-12.441-6.328c-7.587,4.008-16.239,6.328-25.301,6.328c-29.524,0-53.563-24.039-53.563-53.563
		L544.438,694.924z M597.999,717.064c12.231,0,22.142-9.91,22.142-22.141c0-12.229-9.91-22.143-22.142-22.143
		c-12.23,0-22.142,9.914-22.142,22.143C575.857,707.154,585.769,717.064,597.999,717.064z"/>
	<path fill="#93629E" d="M661.919,694.713c0-29.521,24.038-53.561,53.563-53.561c29.514,0,53.558,24.039,53.558,53.561
		c0,29.523-24.044,53.563-53.558,53.563C685.957,748.275,661.919,724.236,661.919,694.713z M693.337,694.713
		c0,12.232,9.91,22.143,22.145,22.143c12.229,0,22.136-9.91,22.136-22.143c0-12.23-9.907-22.141-22.136-22.141
		C703.247,672.572,693.337,682.482,693.337,694.713z"/>
</g>
<text transform="matrix(1 0 0 1 230.3105 835.6543)" fill="#DF98AA" font-family="'Monoround'" font-size="81.9263">Task Manager</text>
<path fill="#93629E" d="M679.102,199.833c13.98,13.978,13.98,36.641,0,50.621L492.442,437.116c-13.98,13.978-36.644,13.978-50.623,0
	l-28.475-28.474c-13.978-13.979-13.978-36.642,0-50.621l186.663-186.663c13.981-13.979,36.644-13.977,50.622,0L679.102,199.833z"/>
<path fill="#4E3248" d="M720.566,199.833c13.979,13.978,13.979,36.641,0,50.621l-186.66,186.662
	c-13.98,13.978-36.645,13.978-50.622,0l-28.476-28.474c-13.978-13.979-13.978-36.642,0-50.621l186.662-186.663
	c13.98-13.979,36.645-13.977,50.621,0L720.566,199.833z"/>
<path fill="#93629E" d="M466.001,485.254c-13.979,13.979-11.02,40.285-24.999,26.304L307.813,377.688
	c-13.979-13.979-13.979-36.643,0-50.621l28.474-28.474c13.978-13.979,36.642-13.979,50.621,0l107.568,107.568
	c13.979,13.979,13.979,36.641,0,50.62L466.001,485.254z"/>
<path fill="#623A78" d="M762.03,199.833c13.979,13.979,13.979,36.642,0,50.621L496.276,516.209c-13.98,13.98-36.644,13.98-50.622,0
	l-28.475-28.472c-13.979-13.979-13.979-36.644,0-50.621l265.757-265.757c13.977-13.979,36.641-13.977,50.62,0.001L762.03,199.833z"
	/>
</svg>
