<?xml version="1.0" encoding="utf-8"?>
<!-- Generator: Adobe Illustrator 25.2.3, SVG Export Plug-In . SVG Version: 6.00 Build 0)  -->
<svg version="1.1" id="Layer_1" xmlns="http://www.w3.org/2000/svg" xmlns:xlink="http://www.w3.org/1999/xlink" x="0px" y="0px"
	 viewBox="0 0 172.8 30.2" style="enable-background:new 0 0 172.8 30.2;" xml:space="preserve">
<style type="text/css">
	.st0{fill:#E4133B;}
	.st1{fill:#212121;}
</style>
<g>
	<path class="st0" d="M12.7,3.3C11.8,2.4,10.5,2,8.8,2H0.6C0.2,2,0,2.2,0,2.5v21.8c0,0.4,0.2,0.6,0.6,0.6h8.3c1.6,0,2.9-0.5,3.9-1.4
		s1.4-2.2,1.4-3.8V6.4C14.1,4.8,13.6,4.2,12.7,3.3z M10.8,19.6c0,1.7-0.8,2.5-2.4,2.5H3.6c-0.2,0-0.4-0.1-0.4-0.4V5.2
		c0-0.2,0.1-0.3,0.4-0.3h4.7c1.6,0,2.4,0.1,2.4,1.8V19.6z"/>
	<path class="st0" d="M19.8,7.8h-2.1c-0.4,0-0.5,0.2-0.5,0.6v16c0,0.4,0.2,0.6,0.6,0.6h2.1c0.2,0,0.3,0,0.4-0.1s0.1-0.2,0.1-0.5v-16
		C20.4,8,20.2,7.8,19.8,7.8z"/>
	<path class="st0" d="M19.9,2h-2.2c-0.4,0-0.5,0.2-0.5,0.5v2.4c0,0.4,0.2,0.6,0.5,0.6h2.2c0.4,0,0.5-0.2,0.5-0.6V2.6
		C20.4,2.2,20.2,2,19.9,2z"/>
	<path class="st0" d="M35.9,7.8h-7.5c-1.6,0-2.9,0.5-3.8,1.4s-1.4,2.2-1.4,3.8v5.9c0,1.7,0.4,2.9,1.3,3.9c0.9,0.9,2.1,1.4,3.7,1.4
		h1.5c1.7,0,2.8-0.6,3.4-1.8h0.1v2.6c0,1.7-0.8,2.5-2.5,2.5H25c-0.4,0-0.6,0.2-0.6,0.6v1.8c0,0.4,0.2,0.5,0.6,0.5h6.3
		c1.6,0,2.9-0.5,3.8-1.4c0.9-0.9,1.4-2.2,1.4-3.8V8.4C36.5,8,36.3,7.8,35.9,7.8z M33.2,18.4c0,1.9-0.9,2.8-2.8,2.8h-1.6
		c-1.6,0-2.4-0.8-2.4-2.5v-5.6c0-1.7,0.8-2.5,2.4-2.5h4c0.2,0,0.4,0.1,0.4,0.3C33.2,11,33.2,18.4,33.2,18.4z"/>
	<path class="st0" d="M42.3,2h-2.2c-0.4,0-0.5,0.2-0.5,0.5v2.4c0,0.4,0.2,0.6,0.5,0.6h2.2c0.4,0,0.5-0.2,0.5-0.6V2.6
		C42.8,2.2,42.7,2,42.3,2z"/>
	<path class="st0" d="M42.3,7.8h-2.2c-0.4,0-0.5,0.2-0.5,0.6v16c0,0.4,0.2,0.6,0.6,0.6h2.2c0.2,0,0.3,0,0.4-0.1
		c0.1-0.1,0.1-0.2,0.1-0.5v-16C42.8,8,42.6,7.8,42.3,7.8z"/>
	<path class="st0" d="M53.8,22.1h-1.3c-1.7,0-2.5-0.8-2.5-2.5V11c0-0.2,0.1-0.3,0.4-0.3h3.1c0.4,0,0.6-0.2,0.6-0.5V8.4
		c0-0.4-0.2-0.6-0.6-0.6h-3.1c-0.2,0-0.4-0.1-0.4-0.3V2.6C50,2.2,49.8,2,49.4,2h-2.1c-0.4,0-0.6,0.2-0.6,0.6v4.8
		c0,0.2-0.1,0.3-0.3,0.3h-1.6c-0.4,0-0.6,0.2-0.6,0.6v1.8c0,0.2,0,0.3,0.1,0.4s0.2,0.1,0.5,0.1h1.6c0.2,0,0.3,0.1,0.3,0.3v8.8
		c0,1.6,0.5,2.9,1.4,3.8s2.2,1.4,3.9,1.4h1.8c0.4,0,0.6-0.2,0.6-0.5v-1.8C54.5,22.2,54.3,22.1,53.8,22.1z"/>
	<path class="st0" d="M68.7,7.8h-7.5c-1.7,0-2.9,0.5-3.8,1.4S56,11.3,56,13v6.7c0,1.6,0.5,2.9,1.4,3.8c0.9,0.9,2.2,1.4,3.8,1.4h1.3
		c1.7,0,2.9-0.6,3.4-1.8h0.1v1.2c0,0.4,0.2,0.6,0.6,0.6h2.1c0.4,0,0.6-0.2,0.6-0.6v-16C69.3,8,69.2,7.8,68.7,7.8z M66.1,19.2
		c0,1.9-0.9,2.9-2.8,2.9h-1.6c-1.6,0-2.4-0.8-2.4-2.5v-6.5c0-1.7,0.8-2.5,2.4-2.5h4c0.2,0,0.4,0.1,0.4,0.3V19.2z"/>
	<path class="st0" d="M75.1,2h-2.1c-0.4,0-0.6,0.2-0.6,0.6v21.8c0,0.4,0.2,0.6,0.6,0.6h2.1c0.4,0,0.6-0.2,0.6-0.6V2.6
		C75.6,2.2,75.4,2,75.1,2z"/>
	<path class="st1" d="M92.5,2h-1c-0.2,0-0.3,0.1-0.3,0.4v10.5c0,0.2-0.1,0.3-0.3,0.3h-9.4c-0.2,0-0.3-0.1-0.3-0.3V2.4
		c0-0.3-0.1-0.4-0.4-0.4h-1c-0.2,0-0.3,0.1-0.3,0.4v22.1c0,0.3,0.1,0.4,0.3,0.4h1c0.2,0,0.4-0.1,0.4-0.4V15c0-0.2,0.1-0.3,0.3-0.3
		h9.4c0.2,0,0.3,0.1,0.3,0.3v9.5c0,0.3,0.1,0.4,0.3,0.4h1c0.2,0,0.4-0.1,0.4-0.4V2.4C92.9,2.1,92.8,2,92.5,2z"/>
	<path class="st1" d="M104.2,7.8h-2.9c-1.5,0-2.6,0.4-3.4,1.3c-0.8,0.9-1.3,2-1.3,3.5v7.6c0,1.5,0.4,2.6,1.3,3.5
		c0.8,0.9,2,1.3,3.4,1.3h2.9c1.5,0,2.6-0.4,3.5-1.3c0.8-0.9,1.3-2,1.3-3.5v-7.6c0-1.5-0.4-2.6-1.3-3.5
		C106.8,8.2,105.6,7.8,104.2,7.8z M107.2,20.1c0,1.1-0.3,1.9-0.8,2.4c-0.6,0.6-1.3,0.9-2.4,0.9h-2.6c-1,0-1.8-0.3-2.3-0.9
		c-0.5-0.6-0.8-1.4-0.8-2.4v-7.5c0-1.1,0.3-1.9,0.8-2.4c0.5-0.6,1.3-0.9,2.3-0.9h2.6c1,0,1.8,0.3,2.4,0.9s0.8,1.4,0.8,2.4V20.1z"/>
	<path class="st1" d="M123.9,7.8h-1c-0.2,0-0.4,0.1-0.4,0.4v11.9c0,1.1-0.3,1.9-0.9,2.4c-0.6,0.6-1.5,0.9-2.5,0.9h-2.2
		c-1,0-1.8-0.3-2.3-0.9s-0.8-1.4-0.8-2.5V8.2c0-0.3-0.1-0.4-0.4-0.4h-1c-0.2,0-0.3,0.1-0.3,0.4v12c0,1.5,0.4,2.6,1.2,3.5
		c0.8,0.9,2,1.3,3.4,1.3h2.2c1.8,0,2.9-0.6,3.5-1.8h0.1v1.4c0,0.3,0.1,0.4,0.4,0.4h1c0.2,0,0.3-0.1,0.3-0.4V8.2
		C124.2,7.9,124.1,7.8,123.9,7.8z"/>
	<path class="st1" d="M135.2,16.1l-4.2-1.7c-0.7-0.2-1.2-0.6-1.6-0.9s-0.5-0.9-0.5-1.5v-0.8c0-0.5,0.2-1,0.7-1.4s1.1-0.6,2.1-0.6
		h5.3c0.2,0,0.4-0.1,0.4-0.3V8.1c0-0.2-0.1-0.4-0.4-0.4h-5.4c-2.9,0-4.3,1.3-4.3,3.9c0,1.1,0.2,1.9,0.7,2.5c0.5,0.6,1.3,1.1,2.4,1.6
		l4.2,1.6c1.3,0.5,1.9,1.4,1.9,2.9v0.8c0,1.6-1,2.4-3,2.4h-5.7c-0.2,0-0.4,0.1-0.4,0.3v0.8c0,0.2,0.1,0.4,0.4,0.4h5.8
		c1.6,0,2.7-0.3,3.5-1c0.8-0.6,1.1-1.6,1.1-3s-0.2-2.4-0.6-3.1C137.1,17.1,136.3,16.5,135.2,16.1z"/>
	<path class="st1" d="M148.4,7.8h-2.9c-1.5,0-2.6,0.4-3.4,1.3c-0.8,0.9-1.3,2-1.3,3.5v7.6c0,1.5,0.4,2.6,1.3,3.5s2,1.3,3.4,1.3h7
		c0.2,0,0.4-0.1,0.4-0.4v-0.8c0-0.2-0.1-0.4-0.4-0.4h-6.9c-1,0-1.8-0.3-2.4-0.9c-0.5-0.6-0.8-1.4-0.8-2.4v-2.6
		c0-0.2,0.1-0.3,0.3-0.3h9.9c0.3,0,0.4-0.1,0.4-0.4v-4.3c0-1.5-0.4-2.6-1.3-3.5C151,8.2,149.8,7.8,148.4,7.8z M151.4,15.6
		c0,0.2-0.1,0.3-0.3,0.3h-8.4c-0.2,0-0.3-0.1-0.3-0.3v-3c0-1.1,0.3-1.9,0.8-2.4c0.5-0.6,1.3-0.9,2.4-0.9h2.7c1,0,1.8,0.3,2.4,0.9
		c0.5,0.6,0.8,1.4,0.8,2.4L151.4,15.6L151.4,15.6z"/>
	<path class="st1" d="M172.4,15.3l-12.1-7.4c-0.3-0.2-0.6,0-0.6,0.3v0.5c0,0.5,0.1,0.6,0.3,0.7l11.2,7l-11.2,7
		c-0.2,0.1-0.3,0.2-0.3,0.7v0.5c0,0.3,0.3,0.5,0.6,0.3l12.1-7.5c0.3-0.2,0.4-0.4,0.4-0.8v-0.2v0v-0.2
		C172.8,15.7,172.6,15.5,172.4,15.3z"/>
</g>
</svg>
